<svg width="35" height="35" viewBox="0 0 35 35" fill="none" xmlns="http://www.w3.org/2000/svg">
<path d="M21.6261 21.6045C22.7643 20.4676 23.3333 19.0945 23.3333 17.4853C23.3333 15.8762 22.7643 14.5031 21.6261 13.3661C20.488 12.2254 19.1136 11.655 17.5028 11.655C15.8921 11.655 14.5157 12.2254 13.3738 13.3661C12.2357 14.5031 11.6667 15.8762 11.6667 17.4853C11.6667 19.0945 12.2357 20.4676 13.3738 21.6045C14.5157 22.7453 15.8921 23.3157 17.5028 23.3157C19.1136 23.3157 20.488 22.7453 21.6261 21.6045ZM23.8608 11.1337C25.6077 12.8789 26.4811 14.9961 26.4811 17.4853C26.4811 19.9746 25.6077 22.0918 23.8608 23.837C22.1139 25.5821 19.9946 26.4547 17.5028 26.4547C15.0111 26.4547 12.8917 25.5821 11.1449 23.837C9.39799 22.0918 8.52455 19.9746 8.52455 17.4853C8.52455 14.9961 9.39799 12.8789 11.1449 11.1337C12.8917 9.3886 15.0111 8.51603 17.5028 8.51603C19.9946 8.51603 22.1139 9.3886 23.8608 11.1337ZM28.3244 6.67458C28.7366 7.08253 28.9426 7.57547 28.9426 8.15341C28.9426 8.72756 28.7366 9.22051 28.3244 9.63224C27.916 10.0402 27.4226 10.2442 26.8441 10.2442C26.2656 10.2442 25.7722 10.0402 25.3638 9.63224C24.9516 9.22051 24.7456 8.72756 24.7456 8.15341C24.7456 7.57547 24.9516 7.08253 25.3638 6.67458C25.7722 6.26284 26.2656 6.05698 26.8441 6.05698C27.4226 6.05698 27.916 6.26284 28.3244 6.67458ZM19.244 3.13331C18.1891 3.14087 17.6087 3.14464 17.5028 3.14464C17.397 3.14464 16.8147 3.14087 15.756 3.13331C14.701 3.12576 13.8994 3.12576 13.3512 3.13331C12.8067 3.14087 12.075 3.16353 11.1562 3.2013C10.2374 3.23908 9.4547 3.31462 8.80813 3.42794C8.16156 3.54126 7.61897 3.68103 7.18036 3.84723C6.42035 4.15319 5.75109 4.59326 5.17258 5.16741C4.59407 5.74535 4.15357 6.41394 3.85108 7.17318C3.68471 7.61136 3.54481 8.15341 3.43137 8.79933C3.31794 9.44526 3.24232 10.2272 3.2045 11.1451C3.16291 12.063 3.13833 12.7958 3.13077 13.3435C3.12321 13.8874 3.12321 14.6882 3.13077 15.7459C3.13833 16.7998 3.14212 17.3796 3.14212 17.4853C3.14212 17.5911 3.13833 18.1709 3.13077 19.2248C3.12321 20.2825 3.12321 21.0833 3.13077 21.6272C3.13833 22.1749 3.16291 22.9077 3.2045 23.8256C3.24232 24.7435 3.31794 25.5254 3.43137 26.1714C3.54481 26.8173 3.68471 27.3593 3.85108 27.7975C4.15357 28.5568 4.59407 29.2253 5.17258 29.8033C5.75109 30.3774 6.42035 30.8175 7.18036 31.1235C7.61897 31.2897 8.16156 31.4294 8.80813 31.5427C9.4547 31.6561 10.2374 31.7316 11.1562 31.7694C12.075 31.8072 12.8067 31.8298 13.3512 31.8374C13.8994 31.8449 14.701 31.8449 15.756 31.8374C16.8147 31.8298 17.397 31.8261 17.5028 31.8261C17.6087 31.8261 18.1891 31.8298 19.244 31.8374C20.299 31.8449 21.1006 31.8449 21.6488 31.8374C22.1971 31.8298 22.9306 31.8072 23.8494 31.7694C24.7683 31.7316 25.551 31.6561 26.1975 31.5427C26.8403 31.4294 27.3829 31.2897 27.8253 31.1235C28.5853 30.8175 29.2527 30.3774 29.8274 29.8033C30.4059 29.2253 30.8464 28.5568 31.1489 27.7975C31.3191 27.3593 31.4609 26.8173 31.5743 26.1714C31.6877 25.5254 31.7633 24.7435 31.8012 23.8256C31.839 22.9077 31.8617 22.1749 31.8692 21.6272C31.8768 21.0833 31.8768 20.2825 31.8692 19.2248C31.8617 18.1709 31.8579 17.5911 31.8579 17.4853C31.8579 17.3796 31.8617 16.7998 31.8692 15.7459C31.8768 14.6882 31.8768 13.8874 31.8692 13.3435C31.8617 12.7958 31.839 12.063 31.8012 11.1451C31.7633 10.2272 31.6877 9.44526 31.5743 8.79933C31.4609 8.15341 31.3191 7.61136 31.1489 7.17318C30.8464 6.41394 30.4059 5.74535 29.8274 5.16741C29.2527 4.59326 28.5853 4.15319 27.8253 3.84723C27.3829 3.68103 26.8403 3.54126 26.1975 3.42794C25.551 3.31462 24.7683 3.23908 23.8494 3.2013C22.9306 3.16353 22.1971 3.14087 21.6488 3.13331C21.1006 3.12576 20.299 3.12576 19.244 3.13331ZM34.8866 10.2668C34.9622 11.604 35 14.0102 35 17.4853C35 20.9605 34.9622 23.3667 34.8866 24.7039C34.7353 27.8579 33.7938 30.3 32.0621 32.03C30.3303 33.7601 27.8839 34.7025 24.7229 34.8574C23.3882 34.9329 20.9815 34.9707 17.5028 34.9707C14.0242 34.9707 11.6156 34.9329 10.2771 34.8574C7.11608 34.7025 4.66969 33.7601 2.93793 32.03C1.20618 30.3 0.264679 27.8579 0.113434 24.7039C0.0378113 23.3667 0 20.9605 0 17.4853C0 14.0102 0.0378113 11.604 0.113434 10.2668C0.264679 7.11275 1.20618 4.67069 2.93793 2.94067C4.66969 1.21064 7.11608 0.268192 10.2771 0.113321C11.6156 0.0377736 14.0242 0 17.5028 0C20.9815 0 23.3882 0.0377736 24.7229 0.113321C27.8839 0.268192 30.3303 1.21064 32.0621 2.94067C33.7938 4.67069 34.7353 7.11275 34.8866 10.2668Z" fill="#B2B2B2"/>
</svg>
