<svg width="37" height="36" viewBox="0 0 37 36" fill="none" xmlns="http://www.w3.org/2000/svg">
<path d="M8.27333 3.88041C8.27333 4.9655 7.89786 5.89101 7.14694 6.65696C6.39226 7.4229 5.36912 7.80587 4.07753 7.80587C2.83475 7.80587 1.84352 7.4229 1.10386 6.65696C0.367954 5.89101 0 4.9655 0 3.88041C0 2.79908 0.382972 1.88295 1.14892 1.13202C1.91111 0.37734 2.91359 0 4.15637 0C5.42168 0 6.41854 0.37734 7.14694 1.13202C7.87158 1.88295 8.24704 2.79908 8.27333 3.88041ZM7.99736 35.9994H0.197118V10.8922H7.99736V35.9994ZM12.6719 18.8895C12.6719 17.3314 12.6512 15.8858 12.6099 14.5529C12.5724 13.2201 12.5254 11.9998 12.4691 10.8922H19.2444L19.5992 14.3784H19.7569C20.2863 13.5598 21.1836 12.6756 22.4489 11.7257C23.718 10.7758 25.4076 10.3008 27.5177 10.3008C28.813 10.3008 30.0014 10.5242 31.0827 10.971C32.1903 11.3953 33.1402 12.0561 33.9325 12.9535C34.7247 13.8508 35.3592 14.9847 35.8361 16.3552C36.2829 17.7031 36.5063 19.3007 36.5063 21.148V35.9994H28.706V22.0603C28.706 20.4496 28.3963 19.143 27.7767 18.1405C27.1572 17.138 26.1472 16.6368 24.7468 16.6368C23.6654 16.6368 22.8019 16.9465 22.1561 17.566C21.5065 18.1855 21.0372 18.852 20.7481 19.5654C20.643 19.8282 20.5697 20.1248 20.5284 20.4552C20.4909 20.7856 20.4721 21.1348 20.4721 21.5028V35.9994H12.6719V18.8895Z" fill="#B2B2B2"/>
</svg>
