<svg width="35" height="41" viewBox="0 0 35 41" fill="none" xmlns="http://www.w3.org/2000/svg">
<path d="M18.3993 0.0391659C19.4997 0.0130553 20.5945 0 21.6837 0C22.7729 0 23.8546 0 24.9288 0C25.0072 1.28688 25.2832 2.54578 25.7569 3.77671C26.2269 5.00764 26.9338 6.08377 27.8775 7.0051C28.8212 7.9227 29.9234 8.6165 31.1842 9.08649C32.4412 9.56021 33.7132 9.86235 35.0001 9.9929V16.7574C33.7915 16.7313 32.5923 16.5877 31.4024 16.3266C30.2088 16.0655 29.0599 15.672 27.9558 15.146C27.4858 14.9371 27.0214 14.6947 26.5626 14.4187C26.1038 14.1426 25.6637 13.861 25.2422 13.5738C25.2422 14.8047 25.2422 16.0375 25.2422 17.2722C25.2422 18.477 25.2422 19.6967 25.2422 20.9314C25.2422 22.1623 25.2291 23.382 25.203 24.5906C25.203 25.8215 25.203 27.0525 25.203 28.2834C25.1247 29.4397 24.8953 30.5886 24.5148 31.73C24.1343 32.8714 23.6028 33.927 22.9202 34.8968C21.8198 36.497 20.3837 37.782 18.6119 38.7519C16.8439 39.7217 14.9751 40.2327 13.0056 40.2849C11.8008 40.3372 10.6146 40.2122 9.44712 39.9101C8.27961 39.6079 7.18483 39.1566 6.16278 38.556C4.45813 37.5564 3.05562 36.1986 1.95524 34.4828C0.851138 32.7632 0.207698 30.9206 0.0249238 28.9548C0.0249238 28.537 0.0193286 28.1174 0.00813834 27.6959C-0.00678201 27.2781 -0.00118676 26.8585 0.0249238 26.437C0.181587 24.8629 0.634793 23.341 1.38454 21.8714C2.13056 20.4054 3.1209 19.1596 4.35555 18.1338C5.74315 16.929 7.35454 16.058 9.18975 15.5209C11.0287 14.9838 12.8527 14.8849 14.6618 15.2243C14.6879 16.4851 14.6879 17.731 14.6618 18.9619C14.6357 20.1966 14.6226 21.4424 14.6226 22.6994C13.7833 22.4383 12.9105 22.347 12.0041 22.4253C11.1014 22.5036 10.2827 22.8058 9.54783 23.3317C9.02189 23.6711 8.56309 24.0964 8.17143 24.6074C7.77604 25.1184 7.47391 25.663 7.26502 26.2412C7.08225 26.685 6.99086 27.1364 6.99086 27.5952C6.99086 28.054 7.00392 28.5072 7.03003 28.9548C7.2128 30.32 7.88049 31.4931 9.03308 32.4741C10.1894 33.4589 11.4744 33.886 12.8881 33.7554C13.8318 33.7554 14.7233 33.5055 15.5626 33.0057C16.4019 32.5096 17.0584 31.868 17.5321 31.0809C17.6887 30.79 17.8398 30.5009 17.9853 30.2137C18.1308 29.9265 18.2166 29.6244 18.2427 29.3073C18.321 27.7854 18.3527 26.2785 18.3378 24.7864C18.3266 23.2907 18.3341 21.7949 18.3602 20.2991C18.3602 18.5945 18.3602 16.9029 18.3602 15.2243C18.3602 13.5458 18.3602 11.8617 18.3602 10.1719C18.3602 8.47849 18.3602 6.77943 18.3602 5.07478C18.3602 3.39624 18.3732 1.7177 18.3993 0.0391659Z" fill="#B2B2B2"/>
</svg>
