<svg width="41" height="29" viewBox="0 0 41 29" fill="none" xmlns="http://www.w3.org/2000/svg">
<path d="M16.2693 8.21094V19.7188L27.3387 14.0019L16.2693 8.21094ZM20.5 0C23.0624 0 25.5374 0.034165 27.9252 0.102495C30.3129 0.170824 32.0629 0.24295 33.1751 0.318872L34.8435 0.409978C34.8587 0.409978 34.9878 0.421366 35.2307 0.444143C35.4775 0.466919 35.654 0.489696 35.7603 0.512472C35.8666 0.535249 36.045 0.569414 36.2955 0.614967C36.5499 0.66052 36.7681 0.721257 36.9504 0.797179C37.1326 0.8731 37.3452 0.973697 37.5881 1.09897C37.8348 1.22044 38.0721 1.36849 38.2999 1.54311C38.5276 1.71773 38.7478 1.91892 38.9604 2.14669C39.0553 2.24159 39.1749 2.38394 39.3191 2.57375C39.4634 2.76355 39.6835 3.20959 39.9796 3.91187C40.2795 4.61414 40.4826 5.38475 40.5889 6.22369C40.7104 7.19928 40.8053 8.23941 40.8736 9.34407C40.9419 10.4487 40.9837 11.3142 40.9989 11.9406V12.8573V15.9663C41.0141 18.1795 40.8774 20.3907 40.5889 22.6C40.4826 23.4389 40.2909 24.1982 40.0138 24.8777C39.7405 25.5572 39.4975 26.026 39.2849 26.2841L38.9604 26.677C38.7478 26.9048 38.5276 27.106 38.2999 27.2806C38.0721 27.4552 37.8348 27.5995 37.5881 27.7133C37.3452 27.831 37.1326 27.9278 36.9504 28.0037C36.7681 28.0797 36.5499 28.1404 36.2955 28.1859C36.045 28.2315 35.8628 28.2657 35.7489 28.2884C35.635 28.3112 35.4585 28.334 35.2193 28.3568C34.984 28.3796 34.8587 28.3909 34.8435 28.3909C31.0171 28.6794 26.2359 28.8237 20.5 28.8237C17.3417 28.7933 14.6009 28.744 12.2777 28.6756C9.95068 28.6073 8.42086 28.5504 7.68822 28.5048L6.56647 28.4137L5.74082 28.3226C5.19419 28.2467 4.78041 28.1708 4.4995 28.0948C4.2148 28.0189 3.8257 27.8576 3.33221 27.6108C2.83492 27.3679 2.40406 27.0566 2.03964 26.677C1.94474 26.5821 1.82516 26.4398 1.68091 26.2499C1.53666 26.0601 1.31648 25.6141 1.02039 24.9118C0.720497 24.2095 0.517407 23.4389 0.411116 22.6C0.289641 21.6244 0.194739 20.5843 0.12641 19.4796C0.0580801 18.375 0.0163232 17.5095 0.00113883 16.8831V15.9663V12.8573C-0.0140455 10.6442 0.122614 8.43301 0.411116 6.22369C0.517407 5.38475 0.709109 4.62553 0.986224 3.94603C1.25954 3.26653 1.50249 2.79772 1.71507 2.53958L2.03964 2.14669C2.25222 1.91892 2.47239 1.71773 2.70016 1.54311C2.92792 1.36849 3.16518 1.22044 3.41192 1.09897C3.65487 0.973697 3.86745 0.8731 4.04967 0.797179C4.23188 0.721257 4.45015 0.66052 4.70449 0.614967C4.95503 0.569414 5.13345 0.535249 5.23974 0.512472C5.34603 0.489696 5.52065 0.466919 5.7636 0.444143C6.01035 0.421366 6.14131 0.409978 6.1565 0.409978C9.98295 0.136659 14.7641 0 20.5 0Z" fill="#B2B2B2"/>
</svg>
